<svg width="25" height="20" viewBox="0 0 25 20" fill="none" xmlns="http://www.w3.org/2000/svg">
<path d="M14.524 7.57343C14.524 6.59033 13.8301 6.04763 12.6112 6.04763H10.3692V9.21489H12.2598C13.7189 9.21044 14.524 8.62325 14.524 7.57343ZM22.6868 7.00403C22.2642 5.62948 22.202 3.94354 22.2509 2.64016C22.2998 1.28339 21.2411 0.0378418 19.8176 0.0378418H5.19128C3.76335 0.0378418 2.70907 1.28784 2.75801 2.64016C2.80249 3.94354 2.74466 5.62948 2.32206 7.00403C1.89502 8.38304 1.17883 9.25492 0 9.36613V10.6339C1.17438 10.7451 1.89502 11.617 2.32206 12.996C2.74466 14.3706 2.80694 16.0565 2.75801 17.3599C2.70907 18.7167 3.76779 19.9622 5.19128 19.9622H19.8132C21.2411 19.9622 22.2954 18.7122 22.2464 17.3599C22.202 16.0565 22.2598 14.3706 22.6824 12.996C23.1094 11.617 23.8256 10.7451 25 10.6339V9.36613C23.8301 9.25492 23.1094 8.38304 22.6868 7.00403ZM13.0427 15.3003H8.68772V4.69976H13.0205C14.9466 4.69976 16.21 5.74069 16.21 7.34211C16.21 8.46756 15.3603 9.4729 14.2749 9.64638V9.70421C15.7518 9.86435 16.7438 10.8875 16.7438 12.2976C16.7438 14.1704 15.3514 15.3003 13.0427 15.3003ZM12.5979 10.4649H10.3692V13.9524H12.6957C14.2171 13.9524 15.0222 13.343 15.0222 12.1953C15.0222 11.0521 14.1948 10.4649 12.5979 10.4649Z" fill="#AAAAAA"/>
</svg>
