<svg width="14" height="22" viewBox="0 0 14 22" fill="none" xmlns="http://www.w3.org/2000/svg">
<path d="M0 4.69997C0 2.61963 1.68708 0.932556 3.76742 0.932556H10.2326C12.3129 0.932556 14 2.61963 14 4.69997C14 6.01739 13.3236 7.1775 12.2972 7.84997C13.3236 8.52244 14 9.68256 14 11C14 13.0803 12.3129 14.7674 10.2326 14.7674H10.15C9.17472 14.7674 8.28596 14.3977 7.61742 13.7882V17.2606C7.61742 19.3685 5.88708 21.0674 3.78708 21.0674C1.71067 21.0674 0 19.3842 0 17.3C0 15.9826 0.676405 14.8224 1.69888 14.15C0.676405 13.4775 0 12.3174 0 11C0 9.68256 0.676405 8.52244 1.69888 7.84997C0.676405 7.1775 0 6.01739 0 4.69997ZM6.38258 8.46739H3.76742C2.36742 8.46739 1.23483 9.59997 1.23483 11C1.23483 12.3921 2.35955 13.5247 3.75169 13.5326C3.75562 13.5326 3.76348 13.5326 3.76742 13.5326H6.38258V8.46739ZM7.61742 11C7.61742 12.4 8.75 13.5326 10.15 13.5326H10.2326C11.6287 13.5326 12.7652 12.4 12.7652 11C12.7652 9.59997 11.6287 8.46739 10.2326 8.46739H10.15C8.75 8.46739 7.61742 9.59997 7.61742 11ZM3.76742 14.7674C3.76348 14.7674 3.75562 14.7674 3.75169 14.7674C2.35955 14.7753 1.23483 15.9078 1.23483 17.3C1.23483 18.696 2.38315 19.8326 3.78708 19.8326C5.21461 19.8326 6.38258 18.6764 6.38258 17.2606V14.7674H3.76742ZM3.76742 2.16739C2.36742 2.16739 1.23483 3.29997 1.23483 4.69997C1.23483 6.09997 2.36742 7.23256 3.76742 7.23256H6.38258V2.16739H3.76742ZM7.61742 7.23256H10.2326C11.6287 7.23256 12.7652 6.09997 12.7652 4.69997C12.7652 3.29997 11.6287 2.16739 10.2326 2.16739H7.61742V7.23256Z" fill="#AAAAAA"/>
</svg>
