<svg width="20" height="20" viewBox="0 0 20 20" fill="none" xmlns="http://www.w3.org/2000/svg">
<path d="M20 2.85714C20 1.28125 18.7188 0 17.1429 0H2.85714C1.28125 0 0 1.28125 0 2.85714V17.1429C0 18.7188 1.28125 20 2.85714 20H17.1429C18.7188 20 20 18.7188 20 17.1429V2.85714ZM8.07589 18.433C6.57143 18.433 5.70089 17.6562 5.25446 16.7143L6.78571 15.7902C7.08036 16.3125 7.34821 16.7545 7.99554 16.7545C8.61161 16.7545 9.00446 16.5134 9.00446 15.5714V9.18304H10.8839V15.5982C10.8839 17.5446 9.74107 18.433 8.07589 18.433ZM11.9063 16.5134L13.4375 15.6295C13.8393 16.2857 14.3661 16.7723 15.2902 16.7723C16.067 16.7723 16.567 16.3839 16.567 15.8438C16.567 15.2009 16.058 14.9732 15.1964 14.5938L14.7277 14.3929C13.3705 13.817 12.4732 13.0893 12.4732 11.558C12.4732 10.1473 13.5491 9.07589 15.2232 9.07589C16.4196 9.07589 17.2768 9.49107 17.8929 10.5804L16.4286 11.5179C16.1071 10.942 15.7589 10.7143 15.2188 10.7143C14.6696 10.7143 14.3214 11.0625 14.3214 11.5179C14.3214 12.0804 14.6696 12.308 15.4777 12.6607L15.9464 12.8616C17.5446 13.5446 18.442 14.2455 18.442 15.817C18.442 17.5045 17.1116 18.433 15.3304 18.433C13.5848 18.433 12.4554 17.6027 11.9063 16.5134Z" fill="#AAAAAA"/>
</svg>
