<svg width="20" height="20" viewBox="0 0 20 20" fill="none" xmlns="http://www.w3.org/2000/svg">
<path d="M19.6333 7.52212C19.2896 6.14271 18.6378 5.10256 17.2495 5.10256H15.4594V7.21856C15.4594 8.86136 14.0665 10.2452 12.4773 10.2452H7.70961C6.40608 10.2452 5.32576 11.3613 5.32576 12.6693V17.2138C5.32576 18.5084 6.45072 19.2673 7.70961 19.6378C9.21849 20.0797 10.6693 20.1601 12.4773 19.6378C13.6782 19.2896 14.8612 18.5887 14.8612 17.2138V15.3969H10.0979V14.7897H17.2495C18.6378 14.7897 19.1512 13.821 19.6333 12.3702C20.1333 10.8747 20.111 9.43724 19.6333 7.52212ZM12.7764 16.6066C13.2719 16.6066 13.6737 17.0129 13.6737 17.5129C13.6737 18.0173 13.2719 18.4235 12.7764 18.4235C12.2854 18.4235 11.8791 18.0128 11.8791 17.5129C11.8836 17.0084 12.2854 16.6066 12.7764 16.6066ZM7.49087 9.64705H12.2586C13.5844 9.64705 14.6424 8.55334 14.6424 7.22303V2.67407C14.6424 1.37947 13.5532 0.410758 12.2586 0.192015C10.6604 -0.0713685 8.92386 -0.057976 7.49087 0.19648C5.47307 0.55361 5.10701 1.29912 5.10701 2.67854V4.49544H9.87918V5.10256H3.31689C1.92854 5.10256 0.714296 5.93736 0.334844 7.52212C-0.102642 9.33903 -0.120498 10.4729 0.334844 12.3702C0.674119 13.7808 1.48213 14.7897 2.87048 14.7897H4.50882V12.6112C4.50882 11.0354 5.87038 9.64705 7.49087 9.64705ZM7.19177 3.2812C6.69625 3.2812 6.29448 2.87496 6.29448 2.37498C6.29894 1.87053 6.69625 1.46429 7.19177 1.46429C7.68282 1.46429 8.08906 1.87499 8.08906 2.37498C8.08906 2.87496 7.68729 3.2812 7.19177 3.2812Z" fill="#AAAAAA"/>
</svg>
