<svg width="29" height="29" viewBox="0 0 29 29" fill="none" xmlns="http://www.w3.org/2000/svg">
<path d="M8.94434 14.5C8.94434 15.9734 9.52965 17.3865 10.5715 18.4284C11.6134 19.4702 13.0265 20.0556 14.4999 20.0556C15.9733 20.0556 17.3864 19.4702 18.4283 18.4284C19.4701 17.3865 20.0554 15.9734 20.0554 14.5C20.0554 13.0266 19.4701 11.6135 18.4283 10.5716C17.3864 9.52976 15.9733 8.94445 14.4999 8.94445C13.0265 8.94445 11.6134 9.52976 10.5715 10.5716C9.52965 11.6135 8.94434 13.0266 8.94434 14.5Z" stroke="white" stroke-width="3" stroke-linecap="round" stroke-linejoin="round"/>
<path d="M2 14.5H3.38889M14.5 2V3.38889M25.6111 14.5H27M14.5 25.6111V27M5.61111 5.61111L6.58333 6.58333M23.3889 5.61111L22.4167 6.58333M22.4167 22.4167L23.3889 23.3889M6.58333 22.4167L5.61111 23.3889" stroke="white" stroke-width="3" stroke-linecap="round" stroke-linejoin="round"/>
</svg>
