<svg width="23" height="21" viewBox="0 0 23 21" fill="none" xmlns="http://www.w3.org/2000/svg">
<path d="M11.9085 0.659912C9.75263 0.660245 7.63735 1.15198 5.78826 2.08268C3.93916 3.01337 2.4256 4.3481 1.40904 5.94449C0.392482 7.54089 -0.0889491 9.33906 0.0161031 11.1472C0.121155 12.9553 0.80875 14.7056 2.00554 16.2113C3.20233 17.7171 4.86343 18.9217 6.81163 19.6969C8.75984 20.472 10.9221 20.7885 13.0677 20.6126C15.2133 20.4367 17.2618 19.775 18.9947 18.6981C20.7276 17.6213 22.0799 16.1696 22.9073 14.4979C23.3134 13.6779 22.3405 12.8539 21.3616 13.1879C19.6838 13.7586 17.821 13.8175 16.0969 13.3543C14.3729 12.8912 12.8966 11.9353 11.9248 10.6529C10.953 9.37052 10.5472 7.84269 10.7779 6.33506C11.0086 4.82744 11.8612 3.43538 13.1874 2.40091L13.2791 2.32091C13.9353 1.69091 13.4137 0.667912 12.3765 0.667912H12.0597L11.9787 0.661912L11.9073 0.659912H11.9085Z" fill="black"/>
</svg>
