<svg width="18" height="17" viewBox="0 0 18 17" fill="none" xmlns="http://www.w3.org/2000/svg">
<path d="M13 0.5C13.106 0.5 13.2025 0.523894 13.2814 0.561235L13.3052 0.573246C13.4541 0.652904 13.5 0.760751 13.5 0.833333V1.66667V2.16667H14L15 2.16667L15 2.16667C15.6628 2.16664 16.288 2.37838 16.7493 2.74089C17.206 3.09969 17.4594 3.57012 17.4956 4.04675L17.5 4.17519V14.1667V14.1667C17.5 14.6459 17.281 15.1277 16.8516 15.5072C16.421 15.8878 15.8168 16.1292 15.1577 16.1628L14.9941 16.1667H3C2.33716 16.1667 1.71201 15.955 1.25066 15.5924C0.794036 15.2337 0.540561 14.7632 0.504379 14.2866L0.5 14.1581V4.16667V4.16663C0.499968 3.68742 0.718951 3.20564 1.1484 2.8261C1.57899 2.44555 2.18319 2.20412 2.84238 2.17054L3.00592 2.16667H4H4.5V1.66667V0.833333V0.833308C4.5 0.793859 4.51222 0.747773 4.54653 0.699152C4.58053 0.650975 4.63624 0.601056 4.71602 0.562539L4.77783 0.53706L4.80714 0.52781L4.86852 0.512977L4.92885 0.504049L5.01063 0.500074C5.03537 0.50042 5.05849 0.501972 5.08011 0.504524L5.17372 0.523069L5.18615 0.526176L5.22509 0.538615C5.40469 0.601604 5.48011 0.715773 5.49584 0.793288L5.5 0.851259V1.66667V2.16667H6H12H12.5V1.66667V0.833333C12.5 0.777407 12.526 0.700706 12.613 0.628188C12.7027 0.553455 12.8409 0.5 13 0.5ZM16.5 5.83333V5.33333H16H2H1.5V5.83333V13.8542C1.5 14.6419 2.02457 15.3818 2.81653 15.4881L2.83371 15.4904L2.85101 15.4915L2.96801 15.499L2.98399 15.5H3H15C15.8246 15.5 16.4138 14.8053 16.4905 14.0372L16.4917 14.0255L16.4923 14.0137L16.4993 13.8804L16.5 13.8673V13.8542V5.83333Z" fill="#AAAAAA" stroke="#AAAAAA"/>
<path d="M5.01496 9.49993H5.00514L4.99532 9.50031C4.916 9.50343 4.83789 9.493 4.76653 9.47083C4.69513 9.44866 4.63511 9.41623 4.58843 9.37921C4.54189 9.3423 4.51117 9.303 4.49258 9.267C4.47425 9.23151 4.46689 9.19791 4.4668 9.16727C4.46671 9.13664 4.47386 9.10312 4.49189 9.06771C4.51019 9.03179 4.54054 8.99251 4.58672 8.95552C4.63304 8.91843 4.69274 8.8858 4.76391 8.86336C4.83505 8.84093 4.91305 8.83016 4.9924 8.83295L5.00118 8.83326H5.00996C5.38178 8.83326 5.51496 9.06567 5.51496 9.16659C5.51496 9.22252 5.48899 9.29922 5.40197 9.37174C5.31229 9.44647 5.17406 9.49993 5.01496 9.49993Z" fill="#AAAAAA" stroke="#AAAAAA"/>
<path d="M9.01496 9.49993H9.00514L8.99532 9.50031C8.916 9.50343 8.83789 9.493 8.76653 9.47083C8.69513 9.44866 8.63511 9.41623 8.58843 9.37921C8.54189 9.3423 8.51117 9.303 8.49258 9.267C8.47425 9.23151 8.46689 9.19791 8.4668 9.16727C8.46671 9.13664 8.47386 9.10312 8.49189 9.06771C8.51019 9.03179 8.54054 8.99251 8.58672 8.95552C8.63304 8.91843 8.69274 8.8858 8.76391 8.86336C8.83505 8.84093 8.91305 8.83016 8.9924 8.83295L9.00118 8.83326H9.00996C9.38178 8.83326 9.51496 9.06567 9.51496 9.16659C9.51496 9.22252 9.48899 9.29922 9.40197 9.37174C9.31229 9.44647 9.17406 9.49993 9.01496 9.49993Z" fill="#AAAAAA" stroke="#AAAAAA"/>
<path d="M13.0208 9.49993H13.011L13.0012 9.50031C12.9219 9.50343 12.8438 9.493 12.7724 9.47083C12.701 9.44866 12.641 9.41623 12.5943 9.37921C12.5477 9.3423 12.517 9.303 12.4984 9.267C12.4801 9.23151 12.4727 9.19791 12.4727 9.16727C12.4726 9.13664 12.4797 9.10312 12.4978 9.06771C12.516 9.03179 12.5464 8.99251 12.5926 8.95552C12.6389 8.91843 12.6986 8.8858 12.7698 8.86336C12.8409 8.84093 12.9189 8.83016 12.9983 8.83295L13.007 8.83326H13.0158C13.3876 8.83326 13.5208 9.06567 13.5208 9.16659C13.5208 9.22252 13.4949 9.29922 13.4078 9.37174C13.3182 9.44647 13.1799 9.49993 13.0208 9.49993Z" fill="#AAAAAA" stroke="#AAAAAA"/>
<path d="M9.02082 11.9999H9.011L9.00118 12.0003C8.92185 12.0034 8.84375 11.993 8.77239 11.9708C8.701 11.9487 8.64097 11.9162 8.59429 11.8792C8.54775 11.8423 8.51703 11.803 8.49844 11.767C8.48011 11.7315 8.47275 11.6979 8.47266 11.6673C8.47257 11.6366 8.47972 11.6031 8.49775 11.5677C8.51604 11.5318 8.5464 11.4925 8.59258 11.4555C8.63889 11.4184 8.6986 11.3858 8.76977 11.3634C8.84091 11.3409 8.91891 11.3302 8.99826 11.333L9.00704 11.3333H9.01582H9.02082C9.17992 11.3333 9.31815 11.3867 9.40783 11.4614C9.49485 11.534 9.52082 11.6107 9.52082 11.6666C9.52082 11.7225 9.49485 11.7992 9.40783 11.8717C9.31815 11.9465 9.17992 11.9999 9.02082 11.9999Z" fill="#AAAAAA" stroke="#AAAAAA"/>
<path d="M5.01496 11.9999H5.00514L4.99532 12.0003C4.916 12.0034 4.83789 11.993 4.76653 11.9708C4.69514 11.9487 4.63511 11.9162 4.58843 11.8792C4.54189 11.8423 4.51117 11.803 4.49258 11.767C4.47425 11.7315 4.46689 11.6979 4.4668 11.6673C4.46671 11.6366 4.47386 11.6031 4.49189 11.5677C4.51019 11.5318 4.54054 11.4925 4.58672 11.4555C4.63304 11.4184 4.69274 11.3858 4.76391 11.3634C4.83505 11.3409 4.91305 11.3302 4.9924 11.333L5.00118 11.3333H5.00996C5.38178 11.3333 5.51496 11.5657 5.51496 11.6666C5.51496 11.7225 5.48899 11.7992 5.40197 11.8717C5.31229 11.9465 5.17406 11.9999 5.01496 11.9999Z" fill="#AAAAAA" stroke="#AAAAAA"/>
</svg>
