<svg width="20" height="17" viewBox="0 0 20 17" fill="none" xmlns="http://www.w3.org/2000/svg">
<path d="M1 8.5C1 9.48491 1.23279 10.4602 1.68508 11.3701C2.13738 12.2801 2.80031 13.1069 3.63604 13.8033C4.47177 14.4997 5.46392 15.0522 6.55585 15.4291C7.64778 15.806 8.8181 16 10 16C11.1819 16 12.3522 15.806 13.4442 15.4291C14.5361 15.0522 15.5282 14.4997 16.364 13.8033C17.1997 13.1069 17.8626 12.2801 18.3149 11.3701C18.7672 10.4602 19 9.48491 19 8.5C19 7.51509 18.7672 6.53982 18.3149 5.62987C17.8626 4.71993 17.1997 3.89314 16.364 3.1967C15.5282 2.50026 14.5361 1.94781 13.4442 1.5709C12.3522 1.19399 11.1819 1 10 1C8.8181 1 7.64778 1.19399 6.55585 1.5709C5.46392 1.94781 4.47177 2.50026 3.63604 3.1967C2.80031 3.89314 2.13738 4.71993 1.68508 5.62987C1.23279 6.53982 1 7.51509 1 8.5Z" stroke="#AAAAAA" stroke-width="2" stroke-linecap="round" stroke-linejoin="round"/>
<path d="M10 8.5L13 10.1667" stroke="#AAAAAA" stroke-width="2" stroke-linecap="round" stroke-linejoin="round"/>
<path d="M10 4.33325V8.49992" stroke="#AAAAAA" stroke-width="2" stroke-linecap="round" stroke-linejoin="round"/>
</svg>
