<svg width="16" height="16" viewBox="0 0 16 16" fill="none" xmlns="http://www.w3.org/2000/svg">
<path d="M2.79064 0.987707C2.29272 0.489788 1.48543 0.489788 0.987513 0.987706C0.489595 1.48563 0.489594 2.29291 0.987513 2.79083L6.39688 8.2002L0.987513 13.6096C0.489594 14.1075 0.489595 14.9148 0.987513 15.4127C1.48543 15.9106 2.29272 15.9106 2.79064 15.4127L8.2 10.0033L13.6094 15.4127C14.1073 15.9106 14.9146 15.9106 15.4125 15.4127C15.9104 14.9148 15.9104 14.1075 15.4125 13.6096L10.0031 8.2002L15.4125 2.79083C15.9104 2.29291 15.9104 1.48563 15.4125 0.987706C14.9146 0.489789 14.1073 0.48979 13.6094 0.987706L8.2 6.39707L2.79064 0.987707Z" fill="white"/>
</svg>
