<svg width="24" height="20" viewBox="0 0 24 20" fill="none" xmlns="http://www.w3.org/2000/svg">
<path d="M6.17423 9.7478L6.17378 9.75529L6.17356 9.76278L6.16689 9.98501L6.16667 9.9925V10C6.16667 11.0005 6.52325 11.9686 7.17541 12.782C7.82634 13.5938 8.7414 14.2148 9.79588 14.5788C10.8505 14.9428 12.0071 15.0372 13.1222 14.8523C14.2373 14.6675 15.2717 14.2098 16.0913 13.5268C16.9117 12.8431 17.4839 11.9603 17.7172 10.9832C17.9509 10.0043 17.8296 8.99097 17.3751 8.07663C16.9217 7.16448 16.1618 6.39976 15.2063 5.86774C14.251 5.33583 13.1355 5.05556 12 5.05556C10.5287 5.05555 9.10088 5.52607 8.01366 6.38786C6.92433 7.25133 6.25216 8.45064 6.17423 9.7478ZM18 3.38889H17.9999C17.5747 3.38894 17.1533 3.5184 16.8165 3.76796C16.4782 4.01864 16.2401 4.38164 16.1809 4.80001L16.1783 4.81844L16.1771 4.837L16.1678 4.97812L16.1666 4.99493L16.1667 5.01178C16.1673 5.4533 16.3708 5.85729 16.6996 6.14748L17.0305 5.77263L16.6996 6.14749C17.0259 6.43551 17.4559 6.59688 17.8974 6.61848C18.3391 6.64009 18.784 6.52161 19.1418 6.27203L18.8558 5.86193L19.1418 6.27203C19.5012 6.02136 19.7568 5.6472 19.819 5.21176L19.8217 5.19301L19.8229 5.17411L19.8322 5.033L19.8333 5.01652V5C19.8333 4.54023 19.6135 4.12235 19.2629 3.83021C18.915 3.54029 18.4597 3.38889 18 3.38889ZM17.3333 0.5C18.9953 0.5 20.5749 1.05097 21.7273 2.0113C22.877 2.9694 23.5 4.24722 23.5 5.55556V14.4444C23.5 15.7528 22.877 17.0306 21.7273 17.9887C20.5749 18.949 18.9953 19.5 17.3333 19.5H6.66667C5.00467 19.5 3.4251 18.949 2.27271 17.9887C1.12299 17.0306 0.5 15.7528 0.5 14.4444V5.55556C0.5 4.24722 1.12299 2.9694 2.27271 2.0113C3.4251 1.05097 5.00467 0.5 6.66667 0.5H17.3333Z" fill="#F1F1F1" stroke="#F1F1F1"/>
</svg>
