<svg width="30" height="30" viewBox="0 0 30 30" fill="none" xmlns="http://www.w3.org/2000/svg">
<g clip-path="url(#clip0_53_458)">
<path d="M24.3751 15.715L15.0001 25L5.62513 15.715C5.00676 15.1132 4.51969 14.39 4.19457 13.5908C3.86945 12.7915 3.71333 11.9337 3.73605 11.0711C3.75877 10.2086 3.95984 9.36015 4.32658 8.57915C4.69332 7.79815 5.2178 7.10154 5.86699 6.5332C6.51618 5.96486 7.27601 5.53709 8.09865 5.27683C8.92128 5.01657 9.78889 4.92946 10.6468 5.02098C11.5048 5.1125 12.3345 5.38067 13.0837 5.80861C13.8329 6.23655 14.4854 6.81498 15.0001 7.50748C15.517 6.82 16.1703 6.24663 16.919 5.82323C17.6677 5.39984 18.4957 5.13554 19.3513 5.04688C20.2068 4.95822 21.0715 5.0471 21.8911 5.30797C22.7107 5.56883 23.4677 5.99607 24.1146 6.56293C24.7615 7.12979 25.2844 7.82408 25.6507 8.60234C26.0169 9.3806 26.2186 10.2261 26.243 11.0859C26.2675 11.9456 26.1142 12.8012 25.7928 13.599C25.4714 14.3969 24.9888 15.1198 24.3751 15.7225" stroke="#BBBBBB" stroke-width="2" stroke-linecap="round" stroke-linejoin="round"/>
</g>
<defs>
<clipPath id="clip0_53_458">
<rect width="30" height="30" fill="white"/>
</clipPath>
</defs>
</svg>
