<svg width="26" height="20" viewBox="0 0 26 20" fill="none" xmlns="http://www.w3.org/2000/svg">
<path d="M24.177 10.4975C26.6077 8.09488 26.6077 4.20383 24.177 1.80116C22.0259 -0.325097 18.6358 -0.60151 16.1621 1.14627L16.0932 1.19305C15.4737 1.63106 15.3318 2.48156 15.7749 3.08967C16.218 3.69778 17.0784 3.84236 17.6936 3.40436L17.7625 3.35758C19.1435 2.38375 21.0321 2.53684 22.2281 3.72329C23.5833 5.06283 23.5833 7.23161 22.2281 8.57116L17.4011 13.351C16.0459 14.6905 13.8518 14.6905 12.4966 13.351C11.2964 12.1645 11.1415 10.2977 12.1267 8.93687L12.174 8.86883C12.6171 8.25647 12.4708 7.40597 11.8556 6.97221C11.2404 6.53846 10.3757 6.67879 9.93688 7.2869L9.88955 7.35494C8.11707 9.79588 8.39671 13.1469 10.5478 15.2731C12.9785 17.6758 16.915 17.6758 19.3457 15.2731L24.177 10.4975ZM1.82303 9.50246C-0.607678 11.9051 -0.607678 15.7962 1.82303 18.1988C3.9741 20.3251 7.36419 20.6015 9.83793 18.8537L9.90676 18.8069C10.5263 18.3689 10.6682 17.5184 10.2251 16.9103C9.782 16.3022 8.92157 16.1576 8.30636 16.5956L8.23753 16.6424C6.85654 17.6162 4.9679 17.4632 3.7719 16.2767C2.41673 14.9329 2.41673 12.7641 3.7719 11.4246L8.59891 6.64902C9.95408 5.30948 12.1482 5.30948 13.5034 6.64902C14.7036 7.83547 14.8585 9.70232 13.8733 11.0674L13.826 11.1354C13.3829 11.7478 13.5292 12.5983 14.1444 13.032C14.7596 13.4658 15.6243 13.3255 16.0631 12.7174L16.1104 12.6493C17.8829 10.2041 17.6033 6.85314 15.4522 4.72689C13.0215 2.32422 9.08505 2.32422 6.65434 4.72689L1.82303 9.50246Z" fill="#9C9C9C"/>
</svg>
