<svg width="24" height="20" viewBox="0 0 24 20" fill="none" xmlns="http://www.w3.org/2000/svg">
<path d="M12.9167 7.73565C12.7318 7.63163 12.5273 7.56119 12.3158 7.52614C12.0024 7.47422 11.677 7.50039 11.3777 7.60368C11.0785 7.70694 10.809 7.88639 10.6123 8.13171C10.4143 8.37856 10.3001 8.68064 10.3 8.99987V9V14C10.3 14.4303 10.5058 14.8199 10.8314 15.0912C11.1543 15.3603 11.5756 15.5 12 15.5C12.4244 15.5 12.8457 15.3603 13.1686 15.0912C13.4942 14.8199 13.7 14.4303 13.7 14V11C13.7 10.8999 13.747 10.7808 13.8716 10.677C13.9988 10.571 14.1879 10.5 14.4 10.5C14.6121 10.5 14.8012 10.571 14.9284 10.677C15.053 10.7808 15.1 10.8999 15.1 11V14C15.1 14.4303 15.3058 14.8199 15.6314 15.0912C15.9543 15.3603 16.3756 15.5 16.8 15.5C17.2244 15.5 17.6457 15.3603 17.9686 15.0912C18.2942 14.8199 18.5 14.4303 18.5 14V11C18.5 10.0393 18.0413 9.14094 17.2657 8.49457C16.4927 7.85046 15.461 7.50005 14.4002 7.5L12.9167 7.73565ZM12.9167 7.73565C13.3904 7.57941 13.8935 7.49979 14.4 7.5L12.9167 7.73565ZM7.2 4.5H7.19995C6.80739 4.50004 6.41744 4.61951 6.10507 4.85099C5.79119 5.08358 5.56865 5.42166 5.51332 5.81301L5.51072 5.83143L5.50949 5.85L5.50109 5.977L5.49998 5.99381L5.5 6.01067C5.50055 6.42387 5.69111 6.80062 5.99653 7.07022C6.29048 7.32969 6.67402 7.47766 7.06885 7.50445C6.68973 7.5302 6.32097 7.66746 6.03138 7.90878C5.70582 8.18008 5.5 8.5697 5.5 9V14C5.5 14.4303 5.70582 14.8199 6.03138 15.0912C6.35428 15.3603 6.77563 15.5 7.2 15.5C7.62437 15.5 8.04572 15.3603 8.36862 15.0912C8.69418 14.8199 8.9 14.4303 8.9 14V9C8.9 8.5697 8.69418 8.18008 8.36862 7.90878C8.07901 7.66744 7.71021 7.53018 7.33105 7.50444C7.66227 7.48198 7.98575 7.37449 8.25624 7.18584C8.58957 6.95334 8.82845 6.60497 8.88658 6.19765L8.88926 6.1789L8.89051 6.16L8.89891 6.033L8.9 6.01652V6C8.9 5.5697 8.69418 5.18008 8.36862 4.90878C8.04572 4.6397 7.62438 4.5 7.2 4.5ZM18 0.5C19.4852 0.5 20.8952 0.992442 21.9226 1.84858C22.9473 2.7025 23.5 3.839 23.5 5V15C23.5 16.161 22.9473 17.2975 21.9226 18.1514C20.8952 19.0076 19.4852 19.5 18 19.5H6C4.51482 19.5 3.10481 19.0076 2.07745 18.1514C1.05275 17.2975 0.5 16.161 0.5 15V5C0.5 3.839 1.05275 2.7025 2.07745 1.84858C3.10481 0.992442 4.51482 0.5 6 0.5H18Z" fill="white" stroke="white"/>
</svg>
