<svg width="30" height="21" viewBox="0 0 30 21" fill="none" xmlns="http://www.w3.org/2000/svg">
<path d="M2 4.42857C2 3.78447 2.30704 3.16676 2.85357 2.71131C3.40011 2.25587 4.14137 2 4.91429 2H25.3143C26.0872 2 26.8285 2.25587 27.375 2.71131C27.9215 3.16676 28.2286 3.78447 28.2286 4.42857V16.5714C28.2286 17.2155 27.9215 17.8332 27.375 18.2887C26.8285 18.7441 26.0872 19 25.3143 19H4.91429C4.14137 19 3.40011 18.7441 2.85357 18.2887C2.30704 17.8332 2 17.2155 2 16.5714V4.42857Z" fill="black" stroke="white" stroke-width="3" stroke-linecap="round" stroke-linejoin="round"/>
<path d="M2 4.4292L15.1143 11.7149L28.2286 4.4292" fill="black"/>
<path d="M2 4.4292L15.1143 11.7149L28.2286 4.4292" stroke="white" stroke-width="3" stroke-linecap="round" stroke-linejoin="round"/>
</svg>
