<svg width="21" height="21" viewBox="0 0 21 21" fill="none" xmlns="http://www.w3.org/2000/svg">
<path d="M11.475 1.275C11.475 0.570837 10.9042 0 10.2 0C9.49584 0 8.925 0.570837 8.925 1.275V8.925H1.275C0.570837 8.925 0 9.49584 0 10.2C0 10.9042 0.570837 11.475 1.275 11.475L8.925 11.475V19.125C8.925 19.8292 9.49584 20.4 10.2 20.4C10.9042 20.4 11.475 19.8292 11.475 19.125V11.475L19.125 11.475C19.8292 11.475 20.4 10.9042 20.4 10.2C20.4 9.49584 19.8292 8.925 19.125 8.925H11.475V1.275Z" fill="white"/>
</svg>
