<svg width="22" height="22" viewBox="0 0 22 22" fill="none" xmlns="http://www.w3.org/2000/svg">
<path d="M21 6C19.2227 2.66667 16.1107 1 11.6667 1C5 1 1 3.77778 1 11C1 18.2222 5.66667 21 11.6667 21C17.6667 21 21 17.6667 21 15.4444C21 13.2222 19.6667 9.88889 11.6667 9.88889C8.33333 9.88889 7.66667 11.2778 7.66667 12.6667C7.66667 14.3333 9 15.4444 11 15.4444C14.3333 15.4444 15.6667 13.7778 15.6667 9.88889C15.6667 6 13 5.44444 11.6667 5.44444C10.3333 5.44444 9.22267 5.81444 8.33333 6.55556" stroke="white" stroke-width="2" stroke-linecap="round" stroke-linejoin="round"/>
</svg>
