<svg width="26" height="22" viewBox="0 0 26 22" fill="none" xmlns="http://www.w3.org/2000/svg">
<path d="M1 11C1 12.3132 1.31039 13.6136 1.91345 14.8268C2.5165 16.0401 3.40042 17.1425 4.51472 18.0711C5.62902 18.9997 6.95189 19.7363 8.4078 20.2388C9.86371 20.7413 11.4241 21 13 21C14.5759 21 16.1363 20.7413 17.5922 20.2388C19.0481 19.7363 20.371 18.9997 21.4853 18.0711C22.5996 17.1425 23.4835 16.0401 24.0866 14.8268C24.6896 13.6136 25 12.3132 25 11C25 9.68678 24.6896 8.38642 24.0866 7.17317C23.4835 5.95991 22.5996 4.85752 21.4853 3.92893C20.371 3.00035 19.0481 2.26375 17.5922 1.7612C16.1363 1.25866 14.5759 1 13 1C11.4241 1 9.86371 1.25866 8.4078 1.7612C6.95189 2.26375 5.62902 3.00035 4.51472 3.92893C3.40042 4.85752 2.5165 5.95991 1.91345 7.17317C1.31039 8.38642 1 9.68678 1 11Z" stroke="#BBBBBB" stroke-width="2" stroke-linecap="round" stroke-linejoin="round"/>
<path d="M7.6665 11C7.6665 13.6522 8.22841 16.1957 9.2286 18.0711C10.2288 19.9464 11.5853 21 12.9998 21C14.4143 21 15.7709 19.9464 16.7711 18.0711C17.7713 16.1957 18.3332 13.6522 18.3332 11C18.3332 8.34784 17.7713 5.8043 16.7711 3.92893C15.7709 2.05357 14.4143 1 12.9998 1C11.5853 1 10.2288 2.05357 9.2286 3.92893C8.22841 5.8043 7.6665 8.34784 7.6665 11Z" stroke="#BBBBBB" stroke-width="2" stroke-linecap="round" stroke-linejoin="round"/>
<path d="M1 11.0001C1 13.4557 6.37333 15.4446 13 15.4446C19.6267 15.4446 25 13.4557 25 11.0001C25 8.54455 19.6267 6.55566 13 6.55566C6.37333 6.55566 1 8.54455 1 11.0001Z" stroke="#BBBBBB" stroke-width="2" stroke-linecap="round" stroke-linejoin="round"/>
</svg>
