<svg width="29" height="20" viewBox="0 0 29 20" fill="none" xmlns="http://www.w3.org/2000/svg">
<path d="M22.4091 0C23.2746 0 24.1317 0.143699 24.9313 0.422892C25.731 0.702084 26.4575 1.1113 27.0696 1.62718C27.6816 2.14307 28.1671 2.75551 28.4983 3.42954C28.8295 4.10357 29 4.82599 29 5.55556V14.4444C29 15.174 28.8295 15.8964 28.4983 16.5705C28.1671 17.2445 27.6816 17.8569 27.0696 18.3728C26.4575 18.8887 25.731 19.2979 24.9313 19.5771C24.1317 19.8563 23.2746 20 22.4091 20H6.59091C5.72538 20 4.86832 19.8563 4.06868 19.5771C3.26903 19.2979 2.54246 18.8887 1.93043 18.3728C0.694397 17.3309 0 15.9179 0 14.4444V5.55556C0 4.08213 0.694397 2.66905 1.93043 1.62718C3.16647 0.585316 4.84289 0 6.59091 0H22.4091ZM10.5455 6.66667V13.3333C10.5456 13.5298 10.6076 13.7228 10.7251 13.8925C10.8426 14.0622 11.0114 14.2026 11.2143 14.2994C11.4172 14.3962 11.6469 14.4459 11.88 14.4435C12.1131 14.441 12.3412 14.3866 12.5412 14.2856L19.1321 10.9522C19.327 10.8534 19.4883 10.7138 19.6002 10.547C19.7122 10.3801 19.771 10.1917 19.771 10C19.771 9.80831 19.7122 9.61988 19.6002 9.45302C19.4883 9.28616 19.327 9.14656 19.1321 9.04778L12.5412 5.71444C12.3412 5.61345 12.1131 5.55895 11.88 5.55652C11.6469 5.55409 11.4172 5.6038 11.2143 5.7006C11.0114 5.79739 10.8426 5.93781 10.7251 6.10752C10.6076 6.27723 10.5456 6.47017 10.5455 6.66667Z" fill="white"/>
</svg>
