<svg width="23" height="20" viewBox="0 0 23 20" fill="none" xmlns="http://www.w3.org/2000/svg">
<mask id="path-1-inside-1_43_352" fill="white">
<path d="M3.98583 0.0252669C4.94472 -0.0881575 6.2891 0.170812 8.02626 0.994895L8.35599 1.1565L8.54995 1.25687L9.03122 1.17356C10.8663 0.879952 12.7491 0.852781 14.5955 1.09326L15.1482 1.17356L15.6283 1.25687L15.8235 1.1565C17.5024 0.313345 18.8383 -0.0178945 19.8506 0.00418814L20.0494 0.0122181L20.2276 0.0292821L20.3197 0.0433346L20.3803 0.0543759L20.5549 0.101553C20.8407 0.199375 21.0705 0.383943 21.1974 0.617483C21.6934 1.53261 21.8605 2.5467 21.6786 3.53841L21.6217 3.80641L21.5659 4.00315L21.715 4.16676C22.4108 4.96475 22.8424 5.90125 22.9636 6.88393L22.9915 7.18004L23 7.45306C23 11.3225 20.9889 13.3582 17.3703 14.1581L17.0733 14.2194L16.9133 14.2485L16.9303 14.4101L16.9399 14.5677L16.9448 14.934L16.9424 15.1478L16.9387 18.9962C16.9387 19.2421 16.8297 19.4794 16.6324 19.6631C16.4351 19.8468 16.1632 19.9642 15.8683 19.993L15.7265 20H8.45297C8.15605 20 7.86947 19.9097 7.64759 19.7463C7.4257 19.583 7.28395 19.3579 7.24921 19.1137L7.24072 18.9962V18.2595C5.03685 18.5205 3.5676 17.8339 2.25837 16.3744L1.60981 15.6056C1.27038 15.2081 1.05824 15.0244 0.895795 14.9591L0.837607 14.9401C0.537466 14.8593 0.287192 14.6848 0.139976 14.4537C-0.00723927 14.2225 -0.0397901 13.953 0.0492418 13.7023C0.138274 13.4516 0.341869 13.2395 0.616757 13.1112C0.891646 12.9828 1.21616 12.9482 1.52132 13.0149C2.29958 13.2036 2.82328 13.585 3.42455 14.2585L4.07674 15.0304C4.99806 16.1135 5.72541 16.4949 7.23951 16.2259L7.24072 15.5453L7.2189 15.3767C7.1831 15.102 7.17459 14.8254 7.19344 14.5496L7.21405 14.3639L7.23709 14.2435L7.10616 14.2194C3.4985 13.5067 1.40494 11.6367 1.19643 8.05732L1.18431 7.74615L1.17946 7.45306C1.18087 6.36557 1.56322 5.30176 2.28019 4.3906L2.46445 4.16777L2.61234 4.00415L2.55779 3.80742C2.33924 2.92568 2.3998 2.01213 2.73357 1.1555L2.85479 0.872437L2.98329 0.618486C3.10985 0.385133 3.33923 0.200591 3.62457 0.102556L3.79914 0.0553798L3.98583 0.0252669Z"/>
</mask>
<path d="M3.98583 0.0252669C4.94472 -0.0881575 6.2891 0.170812 8.02626 0.994895L8.35599 1.1565L8.54995 1.25687L9.03122 1.17356C10.8663 0.879952 12.7491 0.852781 14.5955 1.09326L15.1482 1.17356L15.6283 1.25687L15.8235 1.1565C17.5024 0.313345 18.8383 -0.0178945 19.8506 0.00418814L20.0494 0.0122181L20.2276 0.0292821L20.3197 0.0433346L20.3803 0.0543759L20.5549 0.101553C20.8407 0.199375 21.0705 0.383943 21.1974 0.617483C21.6934 1.53261 21.8605 2.5467 21.6786 3.53841L21.6217 3.80641L21.5659 4.00315L21.715 4.16676C22.4108 4.96475 22.8424 5.90125 22.9636 6.88393L22.9915 7.18004L23 7.45306C23 11.3225 20.9889 13.3582 17.3703 14.1581L17.0733 14.2194L16.9133 14.2485L16.9303 14.4101L16.9399 14.5677L16.9448 14.934L16.9424 15.1478L16.9387 18.9962C16.9387 19.2421 16.8297 19.4794 16.6324 19.6631C16.4351 19.8468 16.1632 19.9642 15.8683 19.993L15.7265 20H8.45297C8.15605 20 7.86947 19.9097 7.64759 19.7463C7.4257 19.583 7.28395 19.3579 7.24921 19.1137L7.24072 18.9962V18.2595C5.03685 18.5205 3.5676 17.8339 2.25837 16.3744L1.60981 15.6056C1.27038 15.2081 1.05824 15.0244 0.895795 14.9591L0.837607 14.9401C0.537466 14.8593 0.287192 14.6848 0.139976 14.4537C-0.00723927 14.2225 -0.0397901 13.953 0.0492418 13.7023C0.138274 13.4516 0.341869 13.2395 0.616757 13.1112C0.891646 12.9828 1.21616 12.9482 1.52132 13.0149C2.29958 13.2036 2.82328 13.585 3.42455 14.2585L4.07674 15.0304C4.99806 16.1135 5.72541 16.4949 7.23951 16.2259L7.24072 15.5453L7.2189 15.3767C7.1831 15.102 7.17459 14.8254 7.19344 14.5496L7.21405 14.3639L7.23709 14.2435L7.10616 14.2194C3.4985 13.5067 1.40494 11.6367 1.19643 8.05732L1.18431 7.74615L1.17946 7.45306C1.18087 6.36557 1.56322 5.30176 2.28019 4.3906L2.46445 4.16777L2.61234 4.00415L2.55779 3.80742C2.33924 2.92568 2.3998 2.01213 2.73357 1.1555L2.85479 0.872437L2.98329 0.618486C3.10985 0.385133 3.33923 0.200591 3.62457 0.102556L3.79914 0.0553798L3.98583 0.0252669Z" fill="white"/>
<path d="M3.98583 0.0252669L3.86836 -0.96781L3.84741 -0.965332L3.82658 -0.961973L3.98583 0.0252669ZM8.02626 0.994895L8.46639 0.0968696L8.45487 0.0914025L8.02626 0.994895ZM8.35599 1.1565L8.8156 0.268379L8.8059 0.263356L8.79609 0.258547L8.35599 1.1565ZM8.54995 1.25687L8.09034 2.145L8.38908 2.2996L8.72053 2.24222L8.54995 1.25687ZM9.03122 1.17356L8.87322 0.186042L8.86065 0.188218L9.03122 1.17356ZM14.5955 1.09326L14.7392 0.10365L14.7319 0.10259L14.7246 0.101639L14.5955 1.09326ZM15.1482 1.17356L15.3192 0.188291L15.3056 0.185933L15.292 0.18395L15.1482 1.17356ZM15.6283 1.25687L15.4573 2.24215L15.7876 2.29946L16.0856 2.14616L15.6283 1.25687ZM15.8235 1.1565L15.3747 0.262814L15.3661 0.267213L15.8235 1.1565ZM19.8506 0.00418814L19.8909 -0.994997L19.8817 -0.995372L19.8724 -0.995574L19.8506 0.00418814ZM20.0494 0.0122181L20.1447 -0.983228L20.1173 -0.985855L20.0897 -0.986967L20.0494 0.0122181ZM20.2276 0.0292821L20.3784 -0.959285L20.3507 -0.9635L20.3229 -0.966164L20.2276 0.0292821ZM20.3197 0.0433346L20.4989 -0.940476L20.4847 -0.943059L20.4705 -0.945233L20.3197 0.0433346ZM20.3803 0.0543759L20.6412 -0.910991L20.6008 -0.921925L20.5595 -0.929435L20.3803 0.0543759ZM20.5549 0.101553L20.8787 -0.844563L20.8476 -0.855225L20.8158 -0.863814L20.5549 0.101553ZM21.1974 0.617483L22.0765 0.140929L22.0761 0.140199L21.1974 0.617483ZM21.6786 3.53841L22.6568 3.74635L22.6597 3.73262L22.6622 3.7188L21.6786 3.53841ZM21.6217 3.80641L22.5838 4.07912L22.5929 4.04701L22.5998 4.01436L21.6217 3.80641ZM21.5659 4.00315L20.6038 3.73044L20.4521 4.26561L20.8268 4.67674L21.5659 4.00315ZM21.715 4.16676L22.4687 3.50954L22.4615 3.50128L22.4541 3.49317L21.715 4.16676ZM22.9636 6.88393L23.9592 6.79018L23.9579 6.77581L23.9561 6.76149L22.9636 6.88393ZM22.9915 7.18004L23.991 7.14897L23.9901 7.11756L23.9871 7.08628L22.9915 7.18004ZM23 7.45306H24V7.43752L23.9995 7.42199L23 7.45306ZM17.3703 14.1581L17.5722 15.1375L17.5792 15.1361L17.5862 15.1346L17.3703 14.1581ZM17.0733 14.2194L17.2523 15.2032L17.2638 15.2011L17.2752 15.1988L17.0733 14.2194ZM16.9133 14.2485L16.7343 13.2646L15.8219 13.4306L15.9187 14.3529L16.9133 14.2485ZM16.9303 14.4101L17.9284 14.3487L17.927 14.3271L17.9248 14.3056L16.9303 14.4101ZM16.9399 14.5677L17.9399 14.5544L17.9395 14.5303L17.9381 14.5063L16.9399 14.5677ZM16.9448 14.934L17.9447 14.9454L17.9449 14.9331L17.9447 14.9208L16.9448 14.934ZM16.9424 15.1478L15.9424 15.1365L15.9424 15.1469L16.9424 15.1478ZM16.9387 18.9962L15.9387 18.9953L15.9387 18.9961L16.9387 18.9962ZM15.8683 19.993L15.9178 20.9918L15.9416 20.9906L15.9654 20.9883L15.8683 19.993ZM15.7265 20V21H15.7512L15.776 20.9988L15.7265 20ZM8.45297 20L8.45287 21H8.45297V20ZM7.24921 19.1137L6.25181 19.1858L6.2543 19.2203L6.25918 19.2545L7.24921 19.1137ZM7.24072 18.9962H6.24072V19.0323L6.24332 19.0683L7.24072 18.9962ZM7.24072 18.2595H8.24072V17.1341L7.12313 17.2664L7.24072 18.2595ZM2.25837 16.3744L1.49398 17.0192L1.50381 17.0308L1.51399 17.0422L2.25837 16.3744ZM1.60981 15.6056L2.37421 14.9608L2.37027 14.9562L1.60981 15.6056ZM0.895795 14.9591L1.2685 14.0312L1.23824 14.019L1.20725 14.0089L0.895795 14.9591ZM0.837607 14.9401L1.14906 13.9898L1.12346 13.9814L1.09743 13.9744L0.837607 14.9401ZM1.52132 13.0149L1.75696 12.043L1.74581 12.0403L1.73461 12.0379L1.52132 13.0149ZM3.42455 14.2585L4.1884 13.6131L4.17961 13.6027L4.17053 13.5926L3.42455 14.2585ZM4.07674 15.0304L3.31289 15.6758L3.31505 15.6783L4.07674 15.0304ZM7.23951 16.2259L7.41444 17.2105L8.23802 17.0641L8.23951 16.2277L7.23951 16.2259ZM7.24072 15.5453L8.24072 15.5471L8.24084 15.4818L8.23245 15.417L7.24072 15.5453ZM7.2189 15.3767L8.21063 15.2484L8.21051 15.2475L7.2189 15.3767ZM7.19344 14.5496L6.19955 14.4393L6.19721 14.4603L6.19577 14.4814L7.19344 14.5496ZM7.21405 14.3639L6.23185 14.1761L6.22448 14.2146L6.22016 14.2536L7.21405 14.3639ZM7.23709 14.2435L8.21929 14.4313L8.40842 13.4422L7.41804 13.26L7.23709 14.2435ZM7.10616 14.2194L6.91235 15.2005L6.92521 15.2029L7.10616 14.2194ZM1.19643 8.05732L0.197191 8.09625L0.197566 8.10586L0.198126 8.11547L1.19643 8.05732ZM1.18431 7.74615L0.184447 7.7627L0.184633 7.77389L0.185069 7.78508L1.18431 7.74615ZM1.17946 7.45306L0.179463 7.45177L0.179451 7.46068L0.179599 7.4696L1.17946 7.45306ZM2.28019 4.3906L1.50954 3.75334L1.50181 3.76269L1.49431 3.77222L2.28019 4.3906ZM2.46445 4.16777L1.72261 3.49719L1.70784 3.51353L1.6938 3.53051L2.46445 4.16777ZM2.61234 4.00415L3.35418 4.67473L3.72291 4.26682L3.57598 3.73695L2.61234 4.00415ZM2.55779 3.80742L1.58716 4.048L1.59047 4.06136L1.59415 4.07462L2.55779 3.80742ZM2.73357 1.1555L1.81432 0.761812L1.80781 0.777027L1.8018 0.792448L2.73357 1.1555ZM2.85479 0.872437L1.96252 0.420946L1.94811 0.449419L1.93555 0.478753L2.85479 0.872437ZM2.98329 0.618486L2.10425 0.141752L2.09745 0.15428L2.09102 0.166996L2.98329 0.618486ZM3.62457 0.102556L3.36368 -0.862811L3.33134 -0.854071L3.29965 -0.843185L3.62457 0.102556ZM3.79914 0.0553798L3.6399 -0.93186L3.5885 -0.92357L3.53824 -0.909988L3.79914 0.0553798ZM4.10329 1.01834C4.79948 0.935993 5.94487 1.11433 7.59766 1.89839L8.45487 0.0914025C6.63334 -0.772703 5.08995 -1.11231 3.86836 -0.96781L4.10329 1.01834ZM7.58617 1.89285L7.9159 2.05445L8.79609 0.258547L8.46635 0.0969427L7.58617 1.89285ZM7.89638 2.04462L8.09034 2.145L9.00956 0.368754L8.8156 0.268379L7.89638 2.04462ZM8.72053 2.24222L9.20179 2.15891L8.86065 0.188218L8.37938 0.27153L8.72053 2.24222ZM9.18921 2.161C10.9291 1.88262 12.7152 1.85681 14.4663 2.08489L14.7246 0.101639C12.783 -0.151247 10.8035 -0.12272 8.87323 0.186122L9.18921 2.161ZM14.4517 2.08288L15.0045 2.16318L15.292 0.18395L14.7392 0.10365L14.4517 2.08288ZM14.9772 2.15884L15.4573 2.24215L15.7993 0.271602L15.3192 0.188291L14.9772 2.15884ZM16.0856 2.14616L16.2808 2.04579L15.3661 0.267213L15.1709 0.367588L16.0856 2.14616ZM16.2722 2.05014C17.8701 1.24773 19.0393 0.986728 19.8288 1.00395L19.8724 -0.995574C18.6373 -1.02252 17.1348 -0.621039 15.3747 0.262855L16.2722 2.05014ZM19.8102 1.00337L20.009 1.0114L20.0897 -0.986967L19.8909 -0.994997L19.8102 1.00337ZM19.9541 1.00766L20.1323 1.02473L20.3229 -0.966164L20.1447 -0.983228L19.9541 1.00766ZM20.0768 1.01785L20.1689 1.0319L20.4705 -0.945233L20.3784 -0.959285L20.0768 1.01785ZM20.1405 1.02715L20.2011 1.03819L20.5595 -0.929435L20.4989 -0.940476L20.1405 1.02715ZM20.1194 1.01974L20.294 1.06692L20.8158 -0.863814L20.6412 -0.910991L20.1194 1.01974ZM20.2311 1.04767C20.27 1.06101 20.2955 1.07704 20.3096 1.08835C20.3237 1.09963 20.3235 1.10371 20.3186 1.09477L22.0761 0.140199C21.8131 -0.344003 21.3669 -0.677475 20.8787 -0.844563L20.2311 1.04767ZM20.3182 1.09404C20.7093 1.81556 20.8343 2.59856 20.695 3.35802L22.6622 3.7188C22.8867 2.49485 22.6775 1.24966 22.0765 0.14093L20.3182 1.09404ZM20.7005 3.33047L20.6435 3.59847L22.5998 4.01436L22.6568 3.74635L20.7005 3.33047ZM20.6596 3.53371L20.6038 3.73044L22.528 4.27586L22.5838 4.07912L20.6596 3.53371ZM20.8268 4.67674L20.9759 4.84035L22.4541 3.49317L22.305 3.32956L20.8268 4.67674ZM20.9613 4.82398C21.5363 5.4834 21.8762 6.23685 21.9712 7.00636L23.9561 6.76149C23.8086 5.56565 23.2854 4.4461 22.4687 3.50954L20.9613 4.82398ZM21.968 6.97768L21.9959 7.27379L23.9871 7.08628L23.9592 6.79018L21.968 6.97768ZM21.992 7.2111L22.0005 7.48412L23.9995 7.42199L23.991 7.14897L21.992 7.2111ZM22 7.45306C22 9.20943 21.5476 10.431 20.7892 11.2985C20.0205 12.1779 18.8357 12.81 17.1544 13.1817L17.5862 15.1346C19.5235 14.7063 21.1535 13.9206 22.295 12.6148C23.4469 11.2971 24 9.56616 24 7.45306H22ZM17.1684 13.1787L16.8714 13.24L17.2752 15.1988L17.5722 15.1375L17.1684 13.1787ZM16.8943 13.2355L16.7343 13.2646L17.0923 15.2323L17.2523 15.2032L16.8943 13.2355ZM15.9187 14.3529L15.9357 14.5145L17.9248 14.3056L17.9078 14.144L15.9187 14.3529ZM15.9321 14.4715L15.9418 14.6291L17.9381 14.5063L17.9284 14.3487L15.9321 14.4715ZM15.94 14.5809L15.9449 14.9473L17.9447 14.9208L17.9399 14.5544L15.94 14.5809ZM15.9449 14.9227L15.9424 15.1365L17.9423 15.1592L17.9447 14.9454L15.9449 14.9227ZM15.9424 15.1469L15.9387 18.9953L17.9387 18.9972L17.9424 15.1488L15.9424 15.1469ZM15.9387 18.9961C15.9387 18.9696 15.9449 18.9484 15.9508 18.9355C15.9565 18.9232 15.9596 18.9232 15.9509 18.9313L17.3139 20.395C17.6924 20.0424 17.9386 19.5483 17.9387 18.9964L15.9387 18.9961ZM15.9509 18.9313C15.9303 18.9505 15.8706 18.988 15.7712 18.9977L15.9654 20.9883C16.4558 20.9404 16.9399 20.7432 17.3139 20.395L15.9509 18.9313ZM15.8189 18.9942L15.677 19.0012L15.776 20.9988L15.9178 20.9918L15.8189 18.9942ZM15.7265 19H8.45297V21H15.7265V19ZM8.45308 19C8.35194 19 8.27701 18.9679 8.2405 18.9411L7.05468 20.5516C7.46194 20.8515 7.96017 20.9999 8.45287 21L8.45308 19ZM8.2405 18.9411C8.22408 18.929 8.2213 18.9225 8.22442 18.9275C8.22783 18.9329 8.23574 18.9482 8.23924 18.9728L6.25918 19.2545C6.33634 19.7969 6.64441 20.2495 7.05468 20.5516L8.2405 18.9411ZM8.24661 19.0416L8.23812 18.9242L6.24332 19.0683L6.25181 19.1858L8.24661 19.0416ZM8.24072 18.9962V18.2595H6.24072V18.9962H8.24072ZM7.12313 17.2664C6.1533 17.3813 5.40761 17.2816 4.78432 17.0332C4.15786 16.7835 3.58467 16.3554 3.00275 15.7067L1.51399 17.0422C2.24129 17.853 3.05735 18.4979 4.04378 18.8911C5.0334 19.2855 6.12427 19.3987 7.35832 19.2526L7.12313 17.2664ZM3.02275 15.7297L2.37419 14.9608L0.845429 16.2503L1.49398 17.0192L3.02275 15.7297ZM2.37027 14.9562C2.04295 14.5729 1.68778 14.1996 1.2685 14.0312L0.523088 15.8871C0.451587 15.8584 0.445129 15.8362 0.518997 15.9024C0.587993 15.9643 0.693409 16.0723 0.849353 16.2549L2.37027 14.9562ZM1.20725 14.0089L1.14906 13.9898L0.526152 15.8903L0.58434 15.9094L1.20725 14.0089ZM1.09743 13.9744C1.05376 13.9627 1.02264 13.9464 1.00336 13.933C0.984042 13.9195 0.980348 13.9116 0.983428 13.9165L-0.703475 14.9909C-0.403893 15.4613 0.0711901 15.7694 0.577779 15.9057L1.09743 13.9744ZM0.983428 13.9165C0.987144 13.9223 0.995612 13.939 0.998804 13.9654C1.00204 13.9922 0.998415 14.0177 0.991581 14.0369L-0.893097 13.3676C-1.0888 13.9187 -1.0104 14.509 -0.703475 14.9909L0.983428 13.9165ZM0.991581 14.0369C0.985132 14.0551 0.978938 14.0594 0.984672 14.0534C0.990615 14.0472 1.00737 14.0324 1.03987 14.0172L0.193647 12.2051C-0.286728 12.4294 -0.701629 12.8285 -0.893097 13.3676L0.991581 14.0369ZM1.03987 14.0172C1.1099 13.9845 1.21022 13.9705 1.30803 13.9919L1.73461 12.0379C1.22209 11.926 0.673394 11.981 0.193647 12.2051L1.03987 14.0172ZM1.28567 13.9867C1.80424 14.1124 2.16212 14.346 2.67857 14.9245L4.17053 13.5926C3.48443 12.824 2.79492 12.2947 1.75696 12.043L1.28567 13.9867ZM2.66071 14.9039L3.3129 15.6758L4.84059 14.385L4.1884 13.6131L2.66071 14.9039ZM3.31505 15.6783C3.8118 16.2623 4.35066 16.7743 5.06016 17.0619C5.7842 17.3554 6.55341 17.3634 7.41444 17.2105L7.06458 15.2413C6.41151 15.3573 6.05999 15.3091 5.8115 15.2084C5.54847 15.1018 5.263 14.8816 4.83843 14.3825L3.31505 15.6783ZM8.23951 16.2277L8.24072 15.5471L6.24072 15.5436L6.23951 16.2241L8.23951 16.2277ZM8.23245 15.417L8.21063 15.2484L6.22717 15.505L6.24899 15.6737L8.23245 15.417ZM8.21051 15.2475C8.18323 15.0381 8.17677 14.8276 8.19111 14.6178L6.19577 14.4814C6.17241 14.8232 6.18297 15.166 6.22729 15.5059L8.21051 15.2475ZM8.18734 14.6599L8.20795 14.4742L6.22016 14.2536L6.19955 14.4393L8.18734 14.6599ZM8.19626 14.5517L8.21929 14.4313L6.25488 14.0556L6.23185 14.1761L8.19626 14.5517ZM7.41804 13.26L7.28712 13.2359L6.92521 15.2029L7.05613 15.227L7.41804 13.26ZM7.29996 13.2383C5.61304 12.9051 4.39775 12.3232 3.58499 11.5075C2.78879 10.7085 2.28762 9.59358 2.19474 7.99917L0.198126 8.11547C0.313755 10.1004 0.963618 11.7103 2.16824 12.9192C3.3563 14.1115 4.99162 14.821 6.91236 15.2004L7.29996 13.2383ZM2.19568 8.01839L2.18355 7.70722L0.185069 7.78508L0.197191 8.09625L2.19568 8.01839ZM2.18417 7.72961L2.17932 7.43652L0.179599 7.4696L0.184447 7.7627L2.18417 7.72961ZM2.17946 7.45435C2.18056 6.60608 2.47773 5.75667 3.06607 5.00898L1.49431 3.77222C0.648715 4.84685 0.181175 6.12506 0.179463 7.45177L2.17946 7.45435ZM3.05084 5.02786L3.2351 4.80502L1.6938 3.53051L1.50954 3.75334L3.05084 5.02786ZM3.20629 4.83834L3.35418 4.67473L1.8705 3.33358L1.72261 3.49719L3.20629 4.83834ZM3.57598 3.73695L3.52143 3.54022L1.59415 4.07462L1.6487 4.27135L3.57598 3.73695ZM3.52842 3.56684C3.36018 2.88807 3.40555 2.18529 3.66534 1.51854L1.8018 0.792448C1.39404 1.83897 1.31831 2.96329 1.58716 4.048L3.52842 3.56684ZM3.65281 1.54918L3.77404 1.26612L1.93555 0.478753L1.81432 0.761812L3.65281 1.54918ZM3.74707 1.32393L3.87557 1.06998L2.09102 0.166996L1.96252 0.420946L3.74707 1.32393ZM3.86234 1.09522C3.85747 1.1042 3.85727 1.10016 3.87123 1.08892C3.88523 1.07766 3.91063 1.06165 3.94949 1.0483L3.29965 -0.843185C2.81213 -0.675692 2.36668 -0.342144 2.10425 0.141752L3.86234 1.09522ZM3.88547 1.06792L4.06003 1.02075L3.53824 -0.909988L3.36368 -0.862811L3.88547 1.06792ZM3.95838 1.04262L4.14507 1.01251L3.82658 -0.961973L3.6399 -0.93186L3.95838 1.04262Z" fill="white" mask="url(#path-1-inside-1_43_352)"/>
</svg>
