<svg width="13" height="17" viewBox="0 0 13 17" fill="none" xmlns="http://www.w3.org/2000/svg">
<path d="M5.01134 9.7774L5.01778 9.6776L5.01768 9.6776L5.0174 9.67758L5.01653 9.67753L5.0136 9.67736L5.00298 9.67684C4.99382 9.67643 4.98052 9.67595 4.9633 9.67557C4.92885 9.67482 4.87868 9.67451 4.81446 9.67621C4.68603 9.67959 4.50129 9.69097 4.27359 9.72281C3.81828 9.78646 3.19048 9.93202 2.49762 10.2595L2.49741 10.2596C2.39252 10.3095 2.30937 10.3611 2.25168 10.4159C2.19448 10.4703 2.15066 10.5396 2.15532 10.6218C2.15994 10.7033 2.21057 10.7657 2.26775 10.8107C2.32577 10.8563 2.40393 10.8951 2.49425 10.929C2.85322 11.0634 3.50574 11.1558 4.28594 11.2005C5.85137 11.2901 7.98573 11.1901 9.448 10.8114L9.46453 10.8071L9.4787 10.7975C9.62326 10.7004 9.79781 10.6086 9.938 10.5404C10.0077 10.5065 10.0682 10.4788 10.1112 10.4597C10.1327 10.4501 10.1498 10.4426 10.1614 10.4376L10.1747 10.4319L10.178 10.4305L10.1788 10.4302L10.1789 10.4301L10.179 10.4301L10.179 10.4301L10.1789 10.43L10.1228 10.2394L10.1403 10.3379L10.1228 10.2394L10.1228 10.2394L10.1226 10.2395L10.122 10.2396L10.1195 10.24L10.1095 10.2418L10.0701 10.2486C10.0356 10.2545 9.98487 10.2631 9.92029 10.2737C9.79111 10.2949 9.60651 10.3242 9.38511 10.3564C8.94212 10.4211 8.35271 10.4976 7.76545 10.5456M5.01134 9.7774L5.03405 9.87478L5.03397 9.8748L5.03363 9.87488L5.03217 9.87522L5.02628 9.87661L5.00319 9.88214C4.983 9.88701 4.95354 9.89421 4.91663 9.90347C4.8428 9.922 4.73932 9.94875 4.62087 9.98158C4.38313 10.0475 4.08839 10.137 3.85224 10.2331C3.73364 10.2814 3.63421 10.3295 3.56498 10.3751C3.5303 10.3979 3.50681 10.4177 3.4926 10.4337C3.48856 10.4382 3.48575 10.4419 3.48381 10.4447C3.49353 10.4537 3.51398 10.4677 3.55284 10.484C3.6385 10.52 3.78469 10.5554 4.01262 10.5853L4.01269 10.5853C4.78034 10.6863 6.32279 10.663 7.76545 10.5456M5.01134 9.7774L5.01786 9.67761L5.03406 9.87478L5.01134 9.7774ZM7.76545 10.5456L7.77356 10.6452M7.76545 10.5456C7.76544 10.5456 7.76543 10.5456 7.76542 10.5456L7.77356 10.6452M7.77356 10.6452C6.3296 10.7628 4.77834 10.7869 3.99964 10.6844C2.62831 10.505 3.85871 10.0902 4.57766 9.8898L7.77356 10.6452ZM1.77041 15.7341C4.91111 16.236 7.77648 16.1238 9.65631 15.7945C10.5926 15.6305 11.2969 15.4106 11.6671 15.1781C11.7606 15.1194 11.8376 15.057 11.8918 14.9904C11.9463 14.9236 11.9824 14.8466 11.9806 14.7621C11.9788 14.6764 11.9383 14.6011 11.8754 14.5382C11.8135 14.4764 11.7263 14.4225 11.6187 14.3748L11.5157 14.5434C11.5153 14.5439 11.5153 14.5439 11.5152 14.5439M1.77041 15.7341L1.78619 15.6354M1.77041 15.7341C1.77044 15.7341 1.77047 15.7341 1.7705 15.7341L1.78619 15.6354M1.77041 15.7341C1.47934 15.6879 1.26801 15.6258 1.12751 15.5486C0.987464 15.4716 0.895299 15.3653 0.900177 15.2281C0.904642 15.1026 0.991253 14.9922 1.09461 14.9026C1.20197 14.8096 1.34808 14.7212 1.51262 14.6414C1.84227 14.4815 2.26319 14.3481 2.64239 14.2817C2.83207 14.2485 3.0145 14.2315 3.17187 14.2374C3.32584 14.2432 3.47058 14.2714 3.57219 14.3418L3.86629 14.5454L3.50944 14.5238L3.50937 14.5238L3.5093 14.5238L3.50926 14.5238L3.50922 14.5238L3.50837 14.5238L3.50295 14.5236C3.49784 14.5234 3.48974 14.5232 3.47876 14.5232C3.4568 14.5232 3.42332 14.5239 3.37919 14.5268C3.29092 14.5325 3.15999 14.547 2.99324 14.5821L2.99311 14.5821C2.8328 14.6157 2.49672 14.7142 2.27349 14.8306C2.21824 14.8594 2.17303 14.8877 2.14008 14.9144C2.10547 14.9424 2.09294 14.9618 2.08971 14.9704C2.08961 14.9707 2.08918 14.9701 2.08909 14.9699C2.08898 14.9697 2.08935 14.97 2.09136 14.9726C2.10015 14.9842 2.12625 15.007 2.19007 15.034L2.19033 15.0342C2.5641 15.194 3.1929 15.308 3.96432 15.3783C4.7324 15.4484 5.63118 15.4743 6.53798 15.463C8.35542 15.4405 10.1888 15.2686 11.0621 15.0092C11.2889 14.941 11.4218 14.8708 11.4968 14.8095C11.5696 14.75 11.5828 14.7036 11.584 14.6762C11.5853 14.6448 11.5719 14.6131 11.5516 14.5847C11.5419 14.5711 11.532 14.5602 11.5246 14.5528C11.521 14.5491 11.5181 14.5465 11.5164 14.545L11.5152 14.5439M1.78619 15.6354C7.73817 16.5865 12.6925 15.3232 11.7695 14.5775C11.7557 14.5331 11.7341 14.4961 11.7144 14.4685C11.697 14.4441 11.6795 14.4248 11.6662 14.4115C11.6595 14.4048 11.6537 14.3994 11.6494 14.3956L11.6439 14.3908L11.6421 14.3893L11.6414 14.3888L11.6412 14.3885L11.641 14.3884C11.641 14.3884 11.6409 14.3883 11.5781 14.4662L1.78619 15.6354ZM11.5152 14.5439L11.515 14.5437L11.5152 14.5438L11.5152 14.5439ZM6.7384 9.82205L6.89589 9.70602C6.75991 9.40566 6.55164 9.11457 6.34788 8.8298C6.32592 8.7991 6.30401 8.76848 6.28224 8.73792C6.05531 8.41931 5.84275 8.10614 5.72521 7.77578C5.60923 7.44979 5.58651 7.10874 5.74068 6.73107C5.89642 6.34955 6.23649 5.92132 6.86609 5.4328C8.46948 4.18963 8.88204 3.146 8.87106 2.39397C8.86561 2.02013 8.75527 1.72685 8.64589 1.52679C8.59122 1.42681 8.5367 1.34991 8.49536 1.29752C8.47467 1.2713 8.45724 1.25116 8.44467 1.23728C8.43839 1.23033 8.43331 1.22494 8.42965 1.22113L8.42523 1.2166L8.42387 1.21523L8.4234 1.21476L8.42322 1.21459C8.42315 1.21452 8.42308 1.21445 8.35298 1.28577L8.42308 1.21445L8.16575 0.961515L8.25617 1.31083C8.41554 1.92646 8.35434 2.42882 8.16079 2.86232C7.96595 3.2987 7.63397 3.6721 7.24031 4.02253C6.97544 4.25833 6.68852 4.47894 6.40003 4.70077C6.25753 4.81034 6.11465 4.9202 5.97385 5.03234C5.55249 5.36792 5.15453 5.72053 4.87653 6.12924L4.87642 6.1294C4.68107 6.41783 4.6053 6.71561 4.6297 7.02076C4.65391 7.32349 4.7761 7.62663 4.96474 7.92992C5.34059 8.53418 5.99596 9.16301 6.7384 9.82205ZM10.3181 4.33773H10.2916L10.2802 4.34422L10.278 4.34479L10.2329 4.3567C10.1937 4.36726 10.1366 4.38307 10.0649 4.4042C9.92166 4.44645 9.71995 4.51 9.48597 4.59541C9.01896 4.76589 8.41912 5.02496 7.89833 5.37799C7.37974 5.72953 6.92479 6.18419 6.77259 6.75091C6.61826 7.32557 6.7822 7.98622 7.43803 8.72866L7.43808 8.72872C7.6148 8.92844 7.68692 9.11742 7.70167 9.28644C7.71653 9.4567 7.67387 9.61524 7.60721 9.75357C7.54043 9.89217 7.451 10.0074 7.3773 10.0885C7.34064 10.1289 7.30836 10.1603 7.28551 10.1813C7.2741 10.1919 7.26508 10.1998 7.2591 10.2049L7.25248 10.2105L7.25104 10.2117L7.25092 10.2118L7.25086 10.2119L7.25132 10.2124L7.35898 10.3788L7.3137 10.2897L7.35907 10.3788L7.35919 10.3787L7.35958 10.3785L7.36086 10.3779L7.36546 10.3755L7.3824 10.3665C7.39699 10.3587 7.41798 10.3471 7.44422 10.3321C7.49668 10.3021 7.57025 10.2581 7.6556 10.2013C7.82575 10.0882 8.04528 9.92318 8.23755 9.71718C8.42915 9.51189 8.5996 9.25962 8.66089 8.97186C8.72315 8.67953 8.67038 8.36104 8.434 8.03432L8.43398 8.03429C8.39773 7.98422 8.36218 7.93566 8.32756 7.88838C8.16165 7.66179 8.01722 7.46453 7.92046 7.27076C7.80622 7.04199 7.76551 6.83095 7.83864 6.59943C7.91361 6.36211 8.11283 6.0879 8.51619 5.74762C8.91839 5.40831 9.51435 5.01085 10.3676 4.52462L10.3587 4.50902C10.3738 4.47119 10.3884 4.3972 10.3181 4.33773ZM10.0856 12.4998L10.0595 12.5131L10.0447 12.5384C10.0326 12.5593 10.0175 12.5785 10.0001 12.5955L9.73005 12.8582L10.0948 12.764C11.088 12.5076 11.7529 12.1505 12.1576 11.7612C12.5637 11.3706 12.7103 10.9439 12.6519 10.5612C12.5348 9.79436 11.6246 9.30113 10.6441 9.64072L10.6441 9.64071L10.6429 9.64114C10.5225 9.68456 10.4181 9.76324 10.344 9.86692L10.159 10.1259L10.4589 10.0193C10.5637 9.98202 10.6713 9.95317 10.7808 9.93299L10.7808 9.93302L10.7828 9.93259C10.993 9.88928 11.2308 9.93646 11.4271 10.0563C11.6226 10.1756 11.7696 10.3623 11.8096 10.5916C11.8493 10.8195 11.7864 11.1071 11.5279 11.4346C11.2684 11.7633 10.8148 12.1276 10.0856 12.4998ZM4.77235 13.3057L4.77279 13.3055L4.77286 13.3054L4.77255 13.3049L4.69666 13.1222C4.39042 13.2064 4.17089 13.3048 4.03577 13.4167C3.96744 13.4733 3.91609 13.537 3.88931 13.6087C3.86179 13.6824 3.86282 13.7577 3.88866 13.8294C3.93777 13.9656 4.07225 14.0792 4.24139 14.1721C4.41491 14.2673 4.64402 14.3511 4.91235 14.4182C5.98326 14.686 7.74394 14.7049 9.30229 14.0491L9.53202 13.9524L9.29918 13.8635C9.00479 13.7511 8.72062 13.6144 8.4497 13.4549L8.41742 13.4359L8.3806 13.4428C7.01957 13.6972 6.39489 13.7148 5.16036 13.5773C4.90681 13.549 4.76788 13.5077 4.69752 13.4691C4.66325 13.4503 4.6524 13.436 4.64961 13.4312C4.64823 13.4288 4.64821 13.4287 4.6488 13.426C4.65213 13.4107 4.67165 13.3827 4.70981 13.3505C4.72634 13.3366 4.74261 13.325 4.75482 13.3168C4.76085 13.3128 4.76572 13.3097 4.76892 13.3078L4.77235 13.3057ZM10.2171 16.0493C7.81786 16.4928 4.85492 16.442 3.10235 16.1579C3.09329 16.1562 3.07756 16.1545 3.05942 16.1589C3.04517 16.1635 3.01651 16.1814 3.00361 16.1953C2.99376 16.211 2.98399 16.242 2.98299 16.2561V16.3412L3.04704 16.3516C3.04835 16.3524 3.04972 16.3532 3.05117 16.354C3.06771 16.3639 3.09212 16.3772 3.12658 16.3931C3.19538 16.4249 3.304 16.467 3.46975 16.5123C3.80091 16.6027 4.36294 16.7067 5.29627 16.7657L5.2963 16.7657C6.71448 16.8549 8.51361 16.8302 9.97345 16.6176C10.7025 16.5114 11.3535 16.3575 11.8313 16.144C12.3018 15.9338 12.6413 15.6483 12.6711 15.2603L12.4798 15.2163C12.4785 15.2157 12.4785 15.2157 12.4785 15.2156L12.4786 15.2153L12.4789 15.2148L12.4793 15.2138L12.4799 15.2124C12.4802 15.2118 12.4803 15.2116 12.4801 15.2119C12.4798 15.2125 12.4784 15.2151 12.4755 15.2195C12.4697 15.2282 12.4578 15.2443 12.436 15.2665C12.3923 15.3111 12.3092 15.38 12.1577 15.4634C11.8539 15.6303 11.2813 15.8515 10.2171 16.0493ZM8.96629 11.8492L8.92935 11.8153L8.88008 11.8246C7.07549 12.1662 6.03368 12.157 4.71493 12.0223C4.46253 11.9964 4.33461 11.9482 4.2756 11.9043C4.24829 11.884 4.23943 11.8674 4.23615 11.8571C4.23275 11.8465 4.23217 11.8328 4.23781 11.8134C4.25035 11.7705 4.28746 11.7208 4.33138 11.6764C4.35198 11.6556 4.37164 11.6383 4.38611 11.6263C4.3933 11.6204 4.3991 11.6158 4.40294 11.6128L4.40714 11.6096L4.40795 11.609L4.408 11.609L4.40774 11.6086L4.31813 11.4331C3.98175 11.5428 3.74167 11.6576 3.59326 11.7768C3.44519 11.8957 3.36387 12.0425 3.42154 12.2009C3.47227 12.3402 3.62025 12.4467 3.8019 12.5295C3.98988 12.6152 4.24034 12.6873 4.53637 12.7432C5.71925 12.9666 7.69944 12.9437 9.5732 12.4047L9.8762 12.3176L9.57835 12.2141C9.35084 12.1352 9.14248 12.0109 8.96629 11.8492ZM10.2922 4.34116C10.2925 4.34109 10.2926 4.34106 10.2923 4.34114L10.2922 4.34116ZM11.5148 14.5436C11.5147 14.5435 11.5147 14.5435 11.5148 14.5436L11.5148 14.5436Z" fill="#AAAAAA" stroke="#AAAAAA" stroke-width="0.2"/>
</svg>
