<svg width="23" height="22" viewBox="0 0 23 22" fill="none" xmlns="http://www.w3.org/2000/svg">
<path d="M18.7863 7.45905C18.5437 7.37819 18.3012 7.30182 18.0586 7.22994C18.099 7.06373 18.135 6.89752 18.1709 6.73131C18.7234 4.05397 18.3596 1.90221 17.1332 1.19244C15.9518 0.514123 14.0246 1.2194 12.075 2.91744C11.8818 3.08365 11.6932 3.25885 11.5135 3.43405C11.3922 3.31725 11.2664 3.20045 11.1406 3.08815C9.09668 1.2733 7.04824 0.509631 5.82188 1.22389C4.64492 1.9067 4.29453 3.93268 4.78867 6.46627C4.83809 6.71783 4.89199 6.9649 4.95488 7.21647C4.66738 7.29733 4.38438 7.38717 4.11934 7.48151C1.72051 8.31256 0 9.62428 0 10.9809C0 12.3825 1.83281 13.7885 4.32598 14.6421C4.52812 14.7094 4.73027 14.7768 4.93691 14.8352C4.86953 15.1047 4.81113 15.3698 4.75723 15.6438C4.28555 18.137 4.65391 20.1135 5.83086 20.7919C7.04375 21.4926 9.0832 20.7739 11.0687 19.0354C11.226 18.8962 11.3832 18.7524 11.5404 18.5997C11.7381 18.7928 11.9447 18.977 12.1514 19.1567C14.074 20.8098 15.9742 21.4792 17.1467 20.8008C18.3596 20.1001 18.7549 17.9753 18.2428 15.3878C18.2023 15.1901 18.1574 14.988 18.108 14.7813C18.2518 14.7409 18.391 14.696 18.5303 14.651C21.1223 13.793 23 12.4049 23 10.9809C23 9.61979 21.2301 8.29908 18.7863 7.45905ZM12.7084 3.64518C14.3795 2.18971 15.9383 1.6192 16.648 2.02799C17.4072 2.46373 17.6992 4.22467 17.223 6.53815C17.1916 6.69088 17.1602 6.83912 17.1197 6.98737C16.1225 6.76276 15.1117 6.60104 14.0965 6.51119C13.5125 5.67565 12.8746 4.87604 12.1828 4.12584C12.358 3.95963 12.5287 3.8024 12.7084 3.64518ZM7.51094 13.3124C7.74004 13.7032 7.97363 14.094 8.2207 14.4758C7.51992 14.3995 6.82363 14.2872 6.13633 14.1389C6.33398 13.4921 6.58105 12.8227 6.86855 12.1399C7.07519 12.5352 7.28633 12.926 7.51094 13.3124ZM6.1498 7.90826C6.79668 7.76451 7.48398 7.64772 8.19824 7.55787C7.96016 7.93072 7.72656 8.31256 7.50645 8.69889C7.28633 9.08073 7.0707 9.47155 6.86855 9.86686C6.58555 9.19752 6.34746 8.54166 6.1498 7.90826ZM7.38066 11.0034C7.67715 10.3835 8.00059 9.77701 8.34199 9.17955C8.6834 8.58209 9.05176 8.0026 9.43809 7.43209C10.1119 7.38268 10.7992 7.35572 11.5 7.35572C12.2008 7.35572 12.8926 7.38268 13.5619 7.43209C13.9437 7.99811 14.3076 8.5776 14.6535 9.17057C14.9994 9.76354 15.3229 10.37 15.6283 10.9854C15.3273 11.6053 15.0039 12.2163 14.658 12.8182C14.3166 13.4157 13.9527 13.9952 13.5709 14.5702C12.9016 14.6196 12.2053 14.6421 11.5 14.6421C10.7947 14.6421 10.1119 14.6196 9.45156 14.5792C9.06074 14.0087 8.69238 13.4247 8.34648 12.8272C8.00059 12.2297 7.68164 11.6233 7.38066 11.0034ZM15.4936 13.3034C15.7227 12.9081 15.9383 12.5083 16.1494 12.104C16.4369 12.7553 16.6885 13.4157 16.9086 14.094C16.2123 14.2512 15.507 14.3725 14.7973 14.4534C15.0398 14.076 15.2689 13.6897 15.4936 13.3034ZM16.1404 9.86686C15.9293 9.47155 15.7137 9.07623 15.4891 8.68991C15.2689 8.30807 15.0398 7.93072 14.8018 7.55787C15.525 7.64772 16.2168 7.76901 16.8637 7.91725C16.657 8.58209 16.4145 9.22897 16.1404 9.86686ZM11.509 4.81315C11.9807 5.32526 12.4254 5.86432 12.8387 6.42135C11.9492 6.38092 11.0553 6.38092 10.1658 6.42135C10.6061 5.84186 11.0598 5.3028 11.509 4.81315ZM6.29805 2.05944C7.05273 1.6192 8.72832 2.24811 10.4937 3.81139C10.6061 3.91022 10.7184 4.01803 10.8352 4.12584C10.1389 4.87604 9.49648 5.67565 8.90801 6.51119C7.89277 6.60104 6.88652 6.75826 5.88926 6.97838C5.83086 6.74928 5.78145 6.51569 5.73203 6.28209C5.30977 4.10787 5.58828 2.46823 6.29805 2.05944ZM5.19746 13.9008C5.00879 13.8469 4.82461 13.7885 4.64043 13.7256C3.68359 13.4247 2.59648 12.9485 1.81035 12.3241C1.35664 12.0096 1.05117 11.5245 0.96582 10.9809C0.96582 10.1589 2.38535 9.10768 4.43379 8.39342C4.68984 8.30358 4.95039 8.22272 5.21094 8.14635C5.51641 9.12115 5.88477 10.078 6.31152 11.0034C5.88027 11.9422 5.50742 12.9126 5.19746 13.9008ZM10.4354 18.3032C9.69414 18.9815 8.83613 19.5206 7.90176 19.8889C7.40312 20.127 6.82813 20.1495 6.31602 19.9473C5.60176 19.534 5.30527 17.9483 5.70957 15.8145C5.75898 15.563 5.81289 15.3114 5.87578 15.0643C6.88203 15.2799 7.89727 15.4282 8.92598 15.5046C9.51894 16.3446 10.1703 17.1487 10.8666 17.9034C10.7229 18.0426 10.5791 18.1774 10.4354 18.3032ZM11.5359 17.2116C11.0777 16.7174 10.6195 16.1694 10.1748 15.5809C10.6061 15.5989 11.0508 15.6079 11.5 15.6079C11.9627 15.6079 12.4164 15.5989 12.8656 15.5764C12.4523 16.1469 12.0076 16.6905 11.5359 17.2116ZM17.4072 18.5592C17.3668 19.1073 17.0973 19.6194 16.666 19.9653C15.9518 20.3786 14.4289 19.8395 12.7848 18.429C12.5961 18.2673 12.4074 18.0921 12.2143 17.9124C12.9016 17.1532 13.535 16.3491 14.11 15.5046C15.1387 15.4192 16.1629 15.262 17.1736 15.0329C17.2186 15.2171 17.259 15.4012 17.2949 15.5809C17.515 16.5512 17.551 17.562 17.4072 18.5592ZM18.2248 13.7301C18.099 13.7706 17.9732 13.811 17.843 13.8469C17.5285 12.8676 17.1422 11.9108 16.6975 10.9809C17.1287 10.0645 17.4926 9.12115 17.798 8.15533C18.0316 8.22272 18.2563 8.29459 18.4719 8.36647C20.5652 9.08522 22.0342 10.1544 22.0342 10.9719C22.0342 11.8524 20.4664 12.9889 18.2248 13.7301ZM11.5 13.0563C12.6365 13.0563 13.5574 12.1354 13.5574 10.9989C13.5574 9.86237 12.6365 8.94147 11.5 8.94147C10.3635 8.94147 9.44258 9.86237 9.44258 10.9989C9.44258 12.1354 10.3635 13.0563 11.5 13.0563Z" fill="#AAAAAA"/>
</svg>
